<?xml version="1.0" encoding="utf-8"?>
<!-- Generator: Adobe Illustrator 22.1.0, SVG Export Plug-In . SVG Version: 6.00 Build 0)  -->
<svg version="1.1" id="Ebene_1" xmlns="http://www.w3.org/2000/svg" xmlns:xlink="http://www.w3.org/1999/xlink" x="0px" y="0px"
	 viewBox="0 0 44 44" style="enable-background:new 0 0 44 44;" xml:space="preserve">
<style type="text/css">
	.st0{fill:url(#SVGID_1_);}
	.st1{fill:#FFFFFF;}
</style>
<radialGradient id="SVGID_1_" cx="1607.1294" cy="2324.3579" r="205.4668" gradientTransform="matrix(0.1584 0 0 0.1584 -254.4466 -367.9205)" gradientUnits="userSpaceOnUse">
	<stop  offset="0" style="stop-color:#E5B76B"/>
	<stop  offset="0.9904" style="stop-color:#FF6600"/>
</radialGradient>
<polygon class="st0" points="0,0 44,0 44,44 0,44 "/>
<g>
	<polygon class="st1" points="6.1,37.1 8.2,37.1 8.2,27.9 6.1,27.9 	"/>
	<polygon class="st1" points="9.9,37.1 16.4,37.1 16.4,35.4 11.9,35.4 11.9,27.9 9.9,27.9 	"/>
	<polygon class="st1" points="18,37.1 20,37.1 20,27.9 18,27.9 	"/>
	<path class="st1" d="M21.1,37.1h2l0.7-2h3.4l0.7,2h2.1l-3.4-9.1h-2.1L21.1,37.1L21.1,37.1z M25.6,30.2L25.6,30.2l1.2,3.4h-2.4
		L25.6,30.2L25.6,30.2z"/>
	<path class="st1" d="M31.1,34c0,2.3,1.9,3.3,3.9,3.3c2.5,0,3.8-1.3,3.8-2.9c0-2.1-2-2.5-2.7-2.7c-2.3-0.6-2.7-0.7-2.7-1.4
		c0-0.8,0.7-1,1.4-1c1,0,1.7,0.3,1.8,1.4h1.9c0-2.1-1.8-2.9-3.7-2.9c-1.7,0-3.4,0.9-3.4,2.8c0,1.7,1.4,2.2,2.7,2.6
		c1.3,0.4,2.7,0.5,2.7,1.5c0,0.9-1.1,1.1-1.8,1.1c-1.1,0-2-0.5-2-1.7L31.1,34L31.1,34z"/>
</g>
</svg>
